<?xml version="1.0" encoding="UTF-8"?>
<svg width="81px" height="82px" viewBox="0 0 81 82" version="1.1" xmlns="http://www.w3.org/2000/svg" xmlns:xlink="http://www.w3.org/1999/xlink">
    <!-- Generator: Sketch 52.6 (67491) - http://www.bohemiancoding.com/sketch -->
    <title>icon</title>
    <desc>Created with Sketch.</desc>
    <g id="Desktop-Welcome" stroke="none" stroke-width="1" fill="none" fill-rule="evenodd">
        <g id="Above-Logos" transform="translate(-718.000000, -1040.000000)" fill="#FFFFFF" fill-rule="nonzero">
            <g id="Group-8" transform="translate(0.000000, 902.000000)">
                <g id="Group-7" transform="translate(136.000000, 135.000000)">
                    <g id="icon" transform="translate(582.000000, 3.000000)">
                        <path d="M76.8596363,1.53479117 C77.5037099,1.39322763 78.2041909,1.57289325 78.7050857,2.07378803 L79.7582235,3.12692579 C80.5392721,3.90797437 80.5392721,5.17430433 79.7582235,5.95535291 L75,10.7135764 L75,78 C75,79.1045695 74.1045695,80 73,80 L9,80 C8.11062408,80 7.35683566,79.4194809 7.09688424,78.6166921 L4.95535291,80.7582235 C4.17430433,81.5392721 2.90797437,81.5392721 2.12692579,80.7582235 L1.07378803,79.7050857 C0.572893255,79.2041909 0.393227634,78.5037099 0.534791168,77.8596363 L76.8596363,1.53479117 Z M7,63.6312977 L7,2 C7,0.8954305 7.8954305,4.54950257e-13 9,4.54747351e-13 L70.6312977,4.54747351e-13 L53.6312977,17 L17,17 C16.4477153,17 16,17.4477153 16,18 L16,20 C16,20.5522847 16.4477153,21 17,21 L49.6312977,21 L39.6312977,31 L17,31 C16.4477153,31 16,31.4477153 16,32 L16,34 C16,34.5522847 16.4477153,35 17,35 L35.6312977,35 L25.6312977,45 L17,45 C16.4477153,45 16,45.4477153 16,46 L16,48 C16,48.5522847 16.4477153,49 17,49 L21.6312977,49 L7,63.6312977 Z M64.7135764,21 L66,21 C66.5522847,21 67,20.5522847 67,20 L67,18.7135764 L64.7135764,21 Z M50.7135764,35 L66,35 C66.5522847,35 67,34.5522847 67,34 L67,32 C67,31.4477153 66.5522847,31 66,31 L54.7135764,31 L50.7135764,35 Z M22.7135764,63 L66,63 C66.5522847,63 67,62.5522847 67,62 L67,60 C67,59.4477153 66.5522847,59 66,59 L26.7135764,59 L22.7135764,63 Z M40.7135764,45 L36.7135764,49 L66,49 C66.5522847,49 67,48.5522847 67,48 L67,46 C67,45.4477153 66.5522847,45 66,45 L40.7135764,45 Z" id="Combined-Shape"></path>
                    </g>
                </g>
            </g>
        </g>
    </g>
</svg>