<?xml version="1.0" encoding="UTF-8"?>
<svg width="147px" height="69px" viewBox="0 0 147 69" version="1.1" xmlns="http://www.w3.org/2000/svg" xmlns:xlink="http://www.w3.org/1999/xlink">
    <!-- Generator: Sketch 52.5 (67469) - http://www.bohemiancoding.com/sketch -->
    <title>Combined Shape</title>
    <desc>Created with Sketch.</desc>
    <g id="Welcome" stroke="none" stroke-width="1" fill="none" fill-rule="evenodd">
        <g id="Welcome-(w/-FAQ)" transform="translate(-253.000000, -1685.000000)" fill="#FFFFFF">
            <g id="Group-19" transform="translate(145.000000, 1435.000000)">
                <g id="Group-11" transform="translate(0.000000, 250.000000)">
                    <path d="M191.1999,48.0698 C195.3699,43.0198 193.7699,35.5998 187.8599,32.3198 C185.9799,31.2898 183.9999,30.4898 182.0599,29.6898 C180.9199,29.2298 179.8299,28.6898 178.8899,27.9198 C177.0109,26.4098 177.3799,23.9798 179.5799,23.0098 C180.2099,22.7198 180.8299,22.6398 181.5199,22.6098 C184.0899,22.4698 186.5199,22.9498 188.8299,24.0698 C189.9709,24.6098 190.3399,24.4398 190.7399,23.2398 C191.1699,21.9798 191.5199,20.6998 191.8899,19.4098 C192.1199,18.5598 191.8299,17.9898 190.9999,17.6098 C189.5199,16.9598 187.9999,16.4998 186.3999,16.2398 C184.3199,15.9298 184.3199,15.8998 184.3199,13.8198 C184.3199,10.8498 184.3199,10.8498 181.3499,10.8498 L180.0599,10.8498 C178.6899,10.9098 178.4399,11.1298 178.4099,12.5298 L178.4099,14.4198 C178.3799,16.2698 178.3799,16.2398 176.6099,16.8998 C172.3199,18.4398 169.6699,21.3798 169.3799,26.0598 C169.1299,30.1998 171.3009,33.0298 174.6899,35.0598 C176.8099,36.3098 179.1199,37.0598 181.3499,38.0298 C182.2099,38.3998 183.0299,38.8498 183.7799,39.4498 C185.9199,41.2198 185.5199,44.1598 182.9799,45.2798 C181.6299,45.8798 180.1799,46.0198 178.7209,45.8498 C176.4399,45.5598 174.2699,44.9598 172.2099,43.9098 C171.0109,43.2798 170.6399,43.4198 170.2399,44.7298 C169.8999,45.8798 169.5799,46.9898 169.2699,48.1298 C168.8699,49.6398 169.0109,50.0198 170.4099,50.6698 C172.2699,51.5898 174.2399,52.0398 176.2609,52.3598 C177.8599,52.6098 177.8899,52.6998 177.9199,54.3298 C177.9499,55.0698 177.9499,55.8098 177.9499,56.5498 C177.9499,57.4998 178.4099,58.0398 179.3799,58.0698 C180.4599,58.0898 181.5799,58.0898 182.6599,58.0698 C183.5799,58.0398 184.0299,57.5498 184.0299,56.6398 C184.0299,55.6098 184.0899,54.6098 184.0299,53.5798 C183.9799,52.5598 184.4299,52.0398 185.4299,51.7598 C187.7499,51.1298 189.6899,49.8998 191.1999,48.0698 Z M181.3199,-0.0002 C200.3699,-0.0002 215.8199,15.4698 215.8199,34.5098 C215.8199,53.5598 200.3699,68.9998 181.3199,68.9998 C162.2699,68.9998 146.8199,53.5298 146.8199,34.4898 C146.8199,15.4398 162.2699,-0.0002 181.3199,-0.0002 Z M137.9997,43.6699 C140.8197,40.2599 139.7397,35.2399 135.7397,33.0299 C134.4707,32.3299 133.1297,31.7899 131.8197,31.2499 C131.0507,30.9399 130.3107,30.5699 129.6807,30.0499 C128.4097,29.0299 128.6597,27.3899 130.1407,26.7299 C130.5697,26.5399 130.9897,26.4799 131.4597,26.4599 C133.1897,26.3699 134.8397,26.6899 136.3997,27.4499 C137.1697,27.8099 137.4197,27.6999 137.6897,26.8899 C137.9797,26.0399 138.2097,25.1699 138.4597,24.2999 C138.6197,23.7299 138.4197,23.3399 137.8597,23.0799 C136.8597,22.6399 135.8397,22.3299 134.7497,22.1599 C133.3507,21.9499 133.3507,21.9299 133.3507,20.5199 C133.3507,18.5099 133.3507,18.5099 131.3397,18.5099 L130.4707,18.5099 C129.5397,18.5499 129.3697,18.6999 129.3507,19.6499 L129.3507,20.9299 C129.3297,22.1799 129.3297,22.1599 128.1407,22.5999 C125.2397,23.6399 123.4497,25.6299 123.2497,28.7899 C123.0797,31.5899 124.5507,33.5099 126.8397,34.8799 C128.2707,35.7199 129.8297,36.2299 131.3397,36.8899 C131.9197,37.1399 132.4797,37.4399 132.9797,37.8499 C134.4307,39.0399 134.1597,41.0299 132.4397,41.7899 C131.5297,42.1899 130.5507,42.2899 129.5607,42.1699 C128.0207,41.9799 126.5507,41.5699 125.1597,40.8599 C124.3507,40.4299 124.1007,40.5299 123.8297,41.4199 C123.6007,42.1899 123.3797,42.9399 123.1697,43.7099 C122.8997,44.7299 122.9997,44.9899 123.9497,45.4299 C125.1997,46.0499 126.5297,46.3599 127.8997,46.5699 C128.9797,46.7399 128.9997,46.7999 129.0207,47.8999 C129.0397,48.3999 129.0397,48.8999 129.0397,49.3999 C129.0397,50.0499 129.3507,50.4099 130.0107,50.4299 C130.7397,50.4499 131.4997,50.4499 132.2297,50.4299 C132.8507,50.4099 133.1497,50.0799 133.1497,49.4699 C133.1497,48.7699 133.1897,48.0899 133.1497,47.3999 C133.1197,46.7099 133.4197,46.3599 134.1007,46.1699 C135.6697,45.7399 136.9797,44.9099 137.9997,43.6699 Z M142.8197,34.4899 C142.8197,40.7099 144.3007,46.5999 146.9497,51.8099 C142.8197,55.5399 137.3297,57.8199 131.3197,57.8199 C118.4397,57.8199 107.9997,47.3599 107.9997,34.4899 C107.9997,21.6199 118.4397,11.1799 131.3197,11.1799 C137.3297,11.1799 142.8107,13.4599 146.9397,17.1999 C144.3007,22.3999 142.8197,28.2699 142.8197,34.4899 Z M237.9997,43.6699 C240.8197,40.2599 239.7397,35.2399 235.7397,33.0299 C234.4707,32.3299 233.1297,31.7899 231.8197,31.2499 C231.0507,30.9399 230.3107,30.5699 229.6807,30.0499 C228.4097,29.0299 228.6597,27.3899 230.1407,26.7299 C230.5697,26.5399 230.9897,26.4799 231.4597,26.4599 C233.1897,26.3699 234.8397,26.6899 236.3997,27.4499 C237.1697,27.8099 237.4197,27.6999 237.6897,26.8899 C237.9797,26.0399 238.2097,25.1699 238.4597,24.2999 C238.6197,23.7299 238.4197,23.3399 237.8597,23.0799 C236.8597,22.6399 235.8397,22.3299 234.7497,22.1599 C233.3507,21.9499 233.3507,21.9299 233.3507,20.5199 C233.3507,18.5099 233.3507,18.5099 231.3397,18.5099 L230.4707,18.5099 C229.5397,18.5499 229.3697,18.6999 229.3507,19.6499 L229.3507,20.9299 C229.3297,22.1799 229.3297,22.1599 228.1407,22.5999 C225.2397,23.6399 223.4497,25.6299 223.2497,28.7899 C223.0797,31.5899 224.5507,33.5099 226.8397,34.8799 C228.2707,35.7199 229.8297,36.2299 231.3397,36.8899 C231.9197,37.1399 232.4797,37.4399 232.9797,37.8499 C234.4307,39.0399 234.1597,41.0299 232.4397,41.7899 C231.5297,42.1899 230.5507,42.2899 229.5607,42.1699 C228.0207,41.9799 226.5507,41.5699 225.1597,40.8599 C224.3507,40.4299 224.1007,40.5299 223.8297,41.4199 C223.6007,42.1899 223.3797,42.9399 223.1697,43.7099 C222.8997,44.7299 222.9997,44.9899 223.9497,45.4299 C225.1997,46.0499 226.5297,46.3599 227.8997,46.5699 C228.9797,46.7399 228.9997,46.7999 229.0207,47.8999 C229.0397,48.3999 229.0397,48.8999 229.0397,49.3999 C229.0397,50.0499 229.3507,50.4099 230.0107,50.4299 C230.7397,50.4499 231.4997,50.4499 232.2297,50.4299 C232.8507,50.4099 233.1497,50.0799 233.1497,49.4699 C233.1497,48.7699 233.1897,48.0899 233.1497,47.3999 C233.1197,46.7099 233.4197,46.3599 234.1007,46.1699 C235.6697,45.7399 236.9797,44.9099 237.9997,43.6699 Z M231.3197,11.1799 C244.1997,11.1799 254.6407,21.6399 254.6407,34.5099 C254.6407,47.3799 244.1997,57.8199 231.3197,57.8199 C225.3107,57.8199 219.8297,55.5399 215.6997,51.7999 C218.3397,46.6099 219.8197,40.7299 219.8197,34.5099 C219.8197,28.2899 218.3397,22.3999 215.6997,17.1899 C219.8297,13.4499 225.3107,11.1799 231.3197,11.1799 Z" id="Combined-Shape"></path>
                </g>
            </g>
        </g>
    </g>
</svg>