<?xml version="1.0" encoding="UTF-8"?>
<svg width="109px" height="71px" viewBox="0 0 109 71" version="1.1" xmlns="http://www.w3.org/2000/svg" xmlns:xlink="http://www.w3.org/1999/xlink">
    <!-- Generator: Sketch 52.5 (67469) - http://www.bohemiancoding.com/sketch -->
    <title>Combined Shape</title>
    <desc>Created with Sketch.</desc>
    <g id="Welcome" stroke="none" stroke-width="1" fill="none" fill-rule="evenodd">
        <g id="Welcome-(w/-FAQ)" transform="translate(-1206.000000, -1684.000000)" fill="#FFFFFF" fill-rule="nonzero">
            <g id="Group-19" transform="translate(145.000000, 1435.000000)">
                <g id="Group-16" transform="translate(920.000000, 249.000000)">
                    <path d="M233.970588,71 L165.845588,71 C152.123749,71 141,59.8020311 141,45.9886364 C141,32.2187408 152.0538,21.0478248 165.716033,20.9776056 C171.326736,8.37636495 183.830658,0 197.904412,0 C216.05371,0 231.048656,13.819468 232.962809,31.6375062 C242.579068,32.9175243 250,41.2028313 250,51.2329545 C250,60.8945961 243.105999,68.9609022 233.970588,70.6673449 L233.970588,71 Z M181.613394,45.4998872 C181.613394,48.098507 179.908428,49.798507 177.536397,49.798507 L174.546537,49.798507 L174.546537,41.2013802 L177.536397,41.2013802 C179.908428,41.2013802 181.613394,42.9013802 181.613394,45.4998872 Z M185.9375,45.4998872 C185.9375,40.6913802 182.305251,37 177.536397,37 L174.546537,37 L170,37 L170,54 L171.359037,54 L177.536397,54 C182.305251,54 185.9375,50.308507 185.9375,45.4998872 Z M187.53125,37 L193.143736,54 L198.653139,54 L204.265625,37 L199.271035,37 L195.898378,48.948507 L192.52584,37 L187.53125,37 Z M210.956976,44.7228117 L210.956976,41.0071533 L213.143386,41.0071533 C214.152499,41.0071533 214.897336,41.7599188 214.897336,42.8770529 C214.897336,44.0185535 214.152499,44.7470653 213.143386,44.7228117 L210.956976,44.7228117 Z M212.158268,48.5114566 L216.146729,54 L221,54 L216.362904,47.6857046 C218.092747,46.7142051 219.198061,44.9655738 219.198061,42.8770529 C219.198061,39.4527767 216.555084,37 213.143386,37 L210.956976,37 L206.65625,37 L206.65625,54 L210.956976,54 L210.956976,48.5114566 L212.158268,48.5114566 Z" id="Combined-Shape"></path>
                </g>
            </g>
        </g>
    </g>
</svg>