<?xml version="1.0" encoding="UTF-8"?>
<svg width="785px" height="273px" viewBox="0 0 785 273" version="1.1" xmlns="http://www.w3.org/2000/svg" xmlns:xlink="http://www.w3.org/1999/xlink">
    <!-- Generator: Sketch 52.5 (67469) - http://www.bohemiancoding.com/sketch -->
    <title>Combined Shape</title>
    <desc>Created with Sketch.</desc>
    <g id="Page-1" stroke="none" stroke-width="1" fill="none" fill-rule="evenodd">
        <path d="M26.98502,199.95696 C11.96355,199.95696 -0.3018,173.57055 0.00566,133.99642 C21.65943,153.51995 41.8967,158.022 41.8967,181.12521 C41.8967,192.29249 35.70363,199.95696 26.98502,199.95696 Z M193.27543,138.38866 C193.27543,190.85403 213.24916,223.90568 236.23159,229.6705 C211.31657,256.32045 175.86018,273 136.49468,273 C96.00916,273 60.86022,256.16672 35.11068,228.03439 C54.70009,228.03439 72.10436,206.85279 72.10436,184.14488 C72.10436,126.03548 9.99802,127.91316 9.99802,90.09593 C9.99802,87.07626 10.44822,84.38601 11.29373,82.04714 C11.60119,81.32242 11.91962,80.64162 12.23806,79.9169 C14.44516,75.73329 18.23348,73.27363 23.10887,73.27363 C33.90281,73.27363 37.7021,82.71696 37.7021,100.95576 L66.84465,100.95576 C66.84465,70.04533 58.75194,50.06061 34.91303,45.31699 C59.89392,17.5031 96.15191,-5.68434189e-14 136.49468,-5.68434189e-14 C173.15894,-5.68434189e-14 213.50172,15.856 237.65907,45.55856 C213.49074,49.18216 193.27543,83.69423 193.27543,138.38866 Z M180.2634,228.51754 L180.2634,49.21511 L149.03454,49.21511 L149.03454,121.41264 L115.24719,121.41264 L115.24719,49.21511 L84.00735,49.21511 L84.00735,228.51754 L115.30209,228.51754 L115.30209,150.80774 L149.03454,150.80774 L149.03454,228.51754 L180.2634,228.51754 Z M224.31762,135.4788 C224.31762,105.30408 233.09113,75.11837 249.12283,75.11837 C268.19615,75.11837 272.99468,121.75304 272.99468,136.51098 C272.99468,168.8379 262.82663,198.05732 249.12283,198.05732 C232.67387,198.05732 224.31762,167.28964 224.31762,135.4788 Z M536.298797,51.69673 L543.765614,51.69673 L543.765614,226.1018 L511.921836,226.1018 L511.921836,78.63217 L482.746348,78.63217 L482.746348,226.1018 L450.924531,226.1018 L450.924531,78.63217 L423.879281,78.63217 L404.630267,226.1018 L375.718313,226.1018 L360.532125,115.62585 L360.048978,115.62585 L344.36866,226.1018 L316.43398,226.1018 L293.16606,51.69673 L322.06704,51.69673 L333.33315,154.07996 L333.83825,154.07996 L349.02444,51.69673 L377.672862,51.69673 L391.651182,154.07996 L392.123348,154.07996 L404.630267,51.69673 L536.298797,51.69673 Z M559.40201,51.69673 L601.76521,51.69673 L615.97413,141.10088 L616.45727,141.10088 L631.40189,51.69673 L672.7988,51.69673 L672.7988,226.1018 L644.40293,226.1018 L644.40293,98.23256 L643.88684,98.23256 L622.35386,226.1018 L604.70802,226.1018 L583.39465,98.23256 L582.92248,98.23256 L582.92248,226.1018 L559.40201,226.1018 L559.40201,51.69673 Z M688.44617,51.69673 L760.45703,51.69673 L760.45703,78.63217 L720.28995,78.63217 L720.28995,123.1915 L749.94858,123.1915 L749.94858,151.60932 L720.28995,151.60932 L720.28995,199.1444 L762.21393,199.1444 L762.21393,226.1018 L688.44617,226.1018 L688.44617,51.69673 Z M784.98772,219.43657 C784.98772,225.21237 780.66136,228.58342 775.81891,228.58342 C770.9545,228.58342 766.63912,225.21237 766.63912,219.43657 C766.63912,213.66077 770.9545,210.3007 775.81891,210.3007 C780.66136,210.3007 784.98772,213.66077 784.98772,219.43657 Z" id="Combined-Shape" fill="#FFFFFF"></path>
    </g>
</svg>