<?xml version="1.0" encoding="UTF-8"?>
<svg width="87px" height="29px" viewBox="0 0 87 29" version="1.1" xmlns="http://www.w3.org/2000/svg" xmlns:xlink="http://www.w3.org/1999/xlink">
    <!-- Generator: Sketch 51.3 (57544) - http://www.bohemiancoding.com/sketch -->
    <title>logo-fubo</title>
    <desc>Created with Sketch.</desc>
    <defs></defs>
    <g id="Page-1" stroke="none" stroke-width="1" fill="none" fill-rule="evenodd">
        <g id="logo-fubo" fill="#FFFFFF">
            <path d="M0.132510739,11.9790368 L1.19249565,6.91058254 L4.15148468,6.97557187 C5.04940654,1.45948376 8.77390768,-0.655978309 15.1262422,0.174240544 L14.1546719,5.22107796 L11.769822,5.17778477 C10.5894866,5.22214791 9.95830321,5.85490223 9.78240328,6.97557187 L12.8739031,6.95389555 L11.9022721,11.9573605 L8.74453716,12.0007132 L5.54264544,27.9858885 L0,28.0075648 L3.15773494,11.9573605 L0.132510739,11.9790368 Z M14.6891794,6.73669864 L20.5188642,6.73669864 L18.288563,17.9999634 C17.8469144,20.382595 17.3831874,23.0251047 20.2759817,23.5233034 C21.0787422,23.6366979 21.9040256,23.5243535 22.6850511,23.1655253 C25.0396013,22.0833341 25.6128921,19.7934708 26.0889409,17.495246 L28.313869,6.75833534 L33.9005904,6.73669864 L29.6166758,27.8553771 L24.4936409,27.9203466 L24.7144854,26.8806164 C21.3071617,29.0842104 17.1637569,28.7893411 14.6914822,27.188008 C12.2903715,25.5274911 11.7430173,22.6191394 12.3450524,18.9371373 L14.6891794,6.73669864 Z M31.5117001,27.9231205 L36.9880901,0.198138195 L42.4865384,0.219774886 L41.0070641,7.67086079 C43.7948597,5.97446101 47.8307207,6.07981109 50.7007296,7.52657656 C52.026342,8.19471837 53.3211497,9.32285781 54.1212236,10.5607262 C55.2848538,12.3604352 55.5385633,14.5866566 55.5812253,17.67787 C55.7641144,20.7750474 57.7794694,23.7534211 61.5517633,23.1809206 C63.6942963,22.8557956 65.389343,21.7902282 66.3187159,19.8210714 C67.5171503,17.2814549 67.0717244,14.054814 65.4740206,12.6743852 C63.6117195,11.0571218 59.6295698,10.7394468 57.568644,13.4108252 C57.172849,11.5751937 56.6098804,9.83867098 55.3604212,8.32063519 C60.3239584,4.5835705 68.3569169,5.87160747 71.3109772,11.1450159 C73.0956908,14.3307611 72.9761484,18.5684814 71.2757084,22.001285 C69.846168,24.8877226 67.2547346,27.1130523 64.1021506,28.0120846 C61.417778,28.7776113 58.51753,28.5846842 56.1434466,27.5814114 C54.1708748,26.7478638 52.3160678,25.1167704 51.37609,23.1958602 C49.796768,19.968506 51.6122459,16.9706355 49.3540488,13.3674726 C48.0126402,11.6239357 45.2799294,11.0500483 43.0006639,11.9470595 C41.0745718,12.7051759 39.7560698,14.4490496 39.3305204,16.4186423 C38.8593801,18.5992522 39.3288034,21.1154092 41.1395142,22.3781043 C43.0679495,23.8365995 46.8072167,23.5406207 48.7137149,21.1001723 C48.9525978,22.9882906 49.5783273,24.7498977 51.054408,26.233616 C48.3750853,28.5802062 40.6830996,29.7570877 37.3193468,26.1903228 L36.9880901,27.9014442 L31.5117001,27.9231205 Z" id="fubo"></path>
            <polygon id="tv" points="71.6734928 0 80.9700503 0.0216168771 81.5000529 5.78321802 84.6356893 0.0216168771 86.9322256 0.0216168771 81.8754461 8.46908033 79.9322246 8.49069721 78.9637198 1.75443447 75.8249573 1.77611078 74.1246385 8.46908033 71.9826307 8.49069721 73.6167547 1.7977871 71.1656091 1.8410803"></polygon>
        </g>
    </g>
</svg>